<svg width="24" height="24" viewBox="0 0 24 24" fill="none" xmlns="http://www.w3.org/2000/svg">
<path d="M12.71 17.7098C12.6163 17.6169 12.5419 17.5063 12.4911 17.3844C12.4403 17.2625 12.4142 17.1318 12.4142 16.9998C12.4142 16.8678 12.4403 16.7371 12.4911 16.6152C12.5419 16.4934 12.6163 16.3828 12.71 16.2898L16 12.9998L6 12.9998C5.73478 12.9998 5.48043 12.8945 5.29289 12.7069C5.10536 12.5194 5 12.265 5 11.9998C5 11.7346 5.10536 11.4802 5.29289 11.2927C5.48043 11.1052 5.73478 10.9998 6 10.9998L16 10.9998L12.71 7.70982C12.6163 7.61685 12.5419 7.50625 12.4911 7.38439C12.4403 7.26253 12.4142 7.13183 12.4142 6.99982C12.4142 6.8678 12.4403 6.7371 12.4911 6.61524C12.5419 6.49338 12.6163 6.38278 12.71 6.28982C12.8974 6.10356 13.1508 5.99902 13.415 5.99902C13.6792 5.99902 13.9326 6.10356 14.12 6.28982L18.41 10.5898C18.7856 10.9632 18.9978 11.4702 19 11.9998C18.9951 12.5259 18.7832 13.0289 18.41 13.3998L14.12 17.6998C13.934 17.8874 13.6813 17.9937 13.4171 17.9956C13.1529 17.9975 12.8987 17.8947 12.71 17.7098Z" fill="#2563EB"/>
</svg>
